<svg xmlns="http://www.w3.org/2000/svg" viewBox="0 0 418.96 126.18"><defs><style>.cls-1{fill:#21bffc;}</style></defs><g id="Layer_2" data-name="Layer 2"><g id="Logo"><path class="cls-1" d="M159.45,55.93l-4.19-9.88H142l-4.19,9.88h-4.47l15.3-34.59,15.29,34.59ZM148.63,30.42l-5,11.86h10.07Z"/><path class="cls-1" d="M195.22,23h4V57.58L174.27,31.41V55.93h-4V21.34l24.95,26.17Z"/><path class="cls-1" d="M231.69,55.93l-4.19-9.88H214.23L210,55.93h-4.47l15.3-34.59,15.29,34.59ZM220.87,30.42l-5,11.86H225.9Z"/><path class="cls-1" d="M242.52,23h4V52.17h12.94v3.76H242.52Z"/><path class="cls-1" d="M280.69,23h4.47l-11,18.73V55.93h-4V41.76L259.23,23h4.47l8.47,15.24Z"/><path class="cls-1" d="M289.63,26.75V23h20.94v3.76H302.1V55.93h-4V26.75Z"/><path class="cls-1" d="M317.16,23h4V55.93h-4Z"/><path class="cls-1" d="M333.4,39.46a13.08,13.08,0,0,0,1.71,6.73,12.69,12.69,0,0,0,4.5,4.56,11.58,11.58,0,0,0,6,1.65,13.22,13.22,0,0,0,10.59-4.89v5.27a14.1,14.1,0,0,1-4.52,2.73,18,18,0,0,1-6.07.89,16.33,16.33,0,0,1-6.42-1.25A15.88,15.88,0,0,1,334,51.62a16.49,16.49,0,0,1-3.53-5.38,17.68,17.68,0,0,1-1.27-6.78,17.68,17.68,0,0,1,1.27-6.78A16.53,16.53,0,0,1,334,27.29a16,16,0,0,1,5.25-3.53,16.51,16.51,0,0,1,6.42-1.24,17.72,17.72,0,0,1,6.07.89,14.1,14.1,0,0,1,4.52,2.73v5.27a12.81,12.81,0,0,0-4.42-3.55,13.56,13.56,0,0,0-6.17-1.34,11.66,11.66,0,0,0-6,1.64,12.88,12.88,0,0,0-4.5,4.54A13.06,13.06,0,0,0,333.4,39.46Z"/><path class="cls-1" d="M139.21,84.38a13.08,13.08,0,0,0,1.72,6.73,12.62,12.62,0,0,0,4.5,4.56,11.55,11.55,0,0,0,6,1.65A13.22,13.22,0,0,0,162,92.43V97.7a14.2,14.2,0,0,1-4.52,2.73,18,18,0,0,1-6.07.89,16.33,16.33,0,0,1-6.42-1.25,15.68,15.68,0,0,1-5.25-3.53,16.33,16.33,0,0,1-3.53-5.38,18.73,18.73,0,0,1,0-13.56,16.48,16.48,0,0,1,3.53-5.39A15.83,15.83,0,0,1,145,68.68a16.51,16.51,0,0,1,6.42-1.25,17.7,17.7,0,0,1,6.07.9A14.2,14.2,0,0,1,162,71.06v5.27a12.9,12.9,0,0,0-4.42-3.55,13.56,13.56,0,0,0-6.17-1.34,11.64,11.64,0,0,0-6,1.64,12.8,12.8,0,0,0-4.5,4.54A13.07,13.07,0,0,0,139.21,84.38Z"/><path class="cls-1" d="M169.57,84.38a17.77,17.77,0,0,1,1.25-6.71,16.12,16.12,0,0,1,8.82-8.94,17.66,17.66,0,0,1,13.3,0,16.26,16.26,0,0,1,8.8,8.94,18.69,18.69,0,0,1,0,13.39,16,16,0,0,1-3.51,5.39,16.55,16.55,0,0,1-5.29,3.58,17.79,17.79,0,0,1-13.3,0,16.57,16.57,0,0,1-5.32-3.58,16.14,16.14,0,0,1-3.5-5.39A17.8,17.8,0,0,1,169.57,84.38Zm4.24,0A13.4,13.4,0,0,0,175.43,91a12.66,12.66,0,0,0,17.27,4.62A12.29,12.29,0,0,0,197.13,91a14.4,14.4,0,0,0,0-13.27,12.34,12.34,0,0,0-4.43-4.61,12.42,12.42,0,0,0-17.27,4.61A13.46,13.46,0,0,0,173.81,84.38Z"/><path class="cls-1" d="M215.55,78.59l-2.45,22.26h-4l4-34.59,13.18,23.86,13.18-23.86,4,34.59h-4L237,78.59l-10.73,19.2Z"/><path class="cls-1" d="M251.46,67.91h8.94a13.12,13.12,0,0,1,5.72,1.2,9.72,9.72,0,0,1,4,3.41,10.09,10.09,0,0,1,0,10.52,9.69,9.69,0,0,1-4,3.43,13.12,13.12,0,0,1-5.72,1.2h-4.94v13.18h-4Zm8.94,3.76h-4.94V83.91h4.94a8.19,8.19,0,0,0,5.2-1.56,6.23,6.23,0,0,0,0-9.15A8.3,8.3,0,0,0,260.4,71.67Z"/><path class="cls-1" d="M279.37,67.91h4V90a8,8,0,0,0,1.83,5.46,8,8,0,0,0,10.74,0A8,8,0,0,0,297.77,90V67.91h4V90a12,12,0,0,1-1.39,5.81,10.14,10.14,0,0,1-3.88,4,12.73,12.73,0,0,1-11.84,0,10.06,10.06,0,0,1-3.9-4A12,12,0,0,1,279.37,90Z"/><path class="cls-1" d="M308.12,71.67V67.91h20.95v3.76H320.6v29.18h-4V71.67Z"/><path class="cls-1" d="M335.66,67.91h4v32.94h-4Z"/><path class="cls-1" d="M374.48,67.91h4V102.5L353.54,76.33v24.52h-4V66.26l24.94,26.17Z"/><path class="cls-1" d="M403.66,87.91V84.14H419a20.33,20.33,0,0,1-1,6.52,16.55,16.55,0,0,1-3.06,5.48,14.34,14.34,0,0,1-5,3.79,15.48,15.48,0,0,1-6.71,1.39,17.24,17.24,0,0,1-6.63-1.25,15.57,15.57,0,0,1-5.32-3.53,16,16,0,0,1-3.51-5.38,19,19,0,0,1,0-13.56,16.11,16.11,0,0,1,3.51-5.39,15.72,15.72,0,0,1,5.32-3.53,18.68,18.68,0,0,1,14.7.54,14,14,0,0,1,5.63,5.23L414.06,77a10.75,10.75,0,0,0-4.33-4.12,13.67,13.67,0,0,0-6.54-1.48,12.2,12.2,0,0,0-10.8,6.18,14.46,14.46,0,0,0,0,13.49,12.09,12.09,0,0,0,4.5,4.56,12.24,12.24,0,0,0,6.3,1.65A11.59,11.59,0,0,0,408.84,96a10.89,10.89,0,0,0,3.81-3.44,12.93,12.93,0,0,0,2-4.68Z"/><path class="cls-1" d="M55.54,121.62,4.85,92.35V33.83L54.17,5.35,55.54,3l1.37,2.37,48.38,27.93-1.88,3.25L60.66,11.85,106.91,92Zm-46.25-31,46.25,26.71,46.25-26.71L55.54,10.47ZM8.6,36V84.28L50.42,11.85Z"/><circle class="cls-1" cx="55.54" cy="119.45" r="6.73"/><circle class="cls-1" cx="55.54" cy="6.73" r="6.73"/><circle class="cls-1" cx="104.35" cy="91.27" r="6.73"/><circle class="cls-1" cx="6.73" cy="91.27" r="6.73"/><circle class="cls-1" cx="104.35" cy="34.91" r="6.73"/><circle class="cls-1" cx="6.73" cy="34.91" r="6.73"/></g></g></svg>